<svg id="Grupo_336" data-name="Grupo 336" xmlns="http://www.w3.org/2000/svg" xmlns:xlink="http://www.w3.org/1999/xlink" width="241.53" height="232.675" viewBox="0 0 241.53 232.675">
  <defs>
    <clipPath id="clip-path">
      <rect id="Rectángulo_135" data-name="Rectángulo 135" width="241.53" height="232.675" fill="none"/>
    </clipPath>
    <clipPath id="clip-path-3">
      <rect id="Rectángulo_124" data-name="Rectángulo 124" width="5.448" height="5.448" fill="none"/>
    </clipPath>
    <clipPath id="clip-path-6">
      <rect id="Rectángulo_127" data-name="Rectángulo 127" width="19.267" height="11.124" fill="none"/>
    </clipPath>
    <clipPath id="clip-path-7">
      <rect id="Rectángulo_128" data-name="Rectángulo 128" width="15.525" height="8.964" fill="none"/>
    </clipPath>
    <clipPath id="clip-path-8">
      <rect id="Rectángulo_129" data-name="Rectángulo 129" width="49.788" height="28.745" fill="none"/>
    </clipPath>
    <clipPath id="clip-path-9">
      <rect id="Rectángulo_130" data-name="Rectángulo 130" width="5.208" height="48.521" fill="none"/>
    </clipPath>
    <clipPath id="clip-path-10">
      <rect id="Rectángulo_131" data-name="Rectángulo 131" width="5.672" height="65.492" fill="none"/>
    </clipPath>
    <clipPath id="clip-path-11">
      <rect id="Rectángulo_132" data-name="Rectángulo 132" width="27" height="37.091" fill="none"/>
    </clipPath>
    <clipPath id="clip-path-12">
      <rect id="Rectángulo_133" data-name="Rectángulo 133" width="12.711" height="13.754" fill="none"/>
    </clipPath>
  </defs>
  <g id="Grupo_335" data-name="Grupo 335" clip-path="url(#clip-path)">
    <g id="Grupo_309" data-name="Grupo 309">
      <g id="Grupo_308" data-name="Grupo 308" clip-path="url(#clip-path)">
        <path id="Trazado_693" data-name="Trazado 693" d="M106.806,106.424,86.2,91.924c-3.031-7.578-8.082-14.313-13.8-17.615C63.117,68.954,55.6,74.637,55.6,87s7.52,26.732,16.795,32.087c4.395,2.54,8.394,2.594,11.388.635Z" transform="translate(60.152 78.216)" fill="#23292e"/>
        <path id="Trazado_694" data-name="Trazado 694" d="M236.488,120.078a19.46,19.46,0,0,0-1.135-6.552l-.175-.483a35.735,35.735,0,0,0-14.018-17.83L198.082,80.042,190.7,62.011a68.115,68.115,0,0,0-28.772-33.057A82.146,82.146,0,0,0,105.4,19.227L92.793,21.6l-6.2-.976a6.741,6.741,0,0,0-4.228.7c-.121.065-.235.135-.352.206L8.218,64.844A6.788,6.788,0,0,0,4.66,70.821v6.864a19.858,19.858,0,0,0,9.941,17.2l20.986,25.8a49.788,49.788,0,0,1,33.888,5.823l89.294,51.453a2.367,2.367,0,0,0,1.332.321,5.2,5.2,0,0,0,.55-.09l2.727-.493a157.057,157.057,0,0,0,52.6-19.689,47.356,47.356,0,0,0,20.272-24.6,2.5,2.5,0,0,0,.15-.4c.027-.077.056-.15.083-.227l-.029-.037a2.377,2.377,0,0,0,.029-.368Z" transform="translate(5.042 19.266)" fill="#7f47dd"/>
        <path id="Trazado_695" data-name="Trazado 695" d="M161.409,134.247a35.743,35.743,0,0,0-14.068-17.973L124,100.928l-7-17.093A69.834,69.834,0,0,0,87.236,49.491a82.157,82.157,0,0,0-55.917-9.379l-12.61,2.375-6.2-.976A6.8,6.8,0,0,0,4.66,48.223V55.09a19.85,19.85,0,0,0,9.939,17.2l20.986,25.8a49.774,49.774,0,0,1,33.888,5.823l89.3,51.453a2.425,2.425,0,0,0,3.635-2.1V140.41a18.484,18.484,0,0,0-1-6.163" transform="translate(5.042 41.864)" fill="#40095d"/>
        <path id="Trazado_696" data-name="Trazado 696" d="M89.185,106.4c0,12.367-7.518,18.05-16.793,12.7S55.6,99.371,55.6,87s7.52-18.052,16.795-12.7S89.185,94.029,89.185,106.4" transform="translate(60.152 78.216)" fill="#2e373d"/>
        <path id="Trazado_697" data-name="Trazado 697" d="M76.211,95.02c0,6.081-3.7,8.875-8.257,6.242S59.7,91.566,59.7,85.486s3.7-8.875,8.257-6.244,8.257,9.7,8.257,15.777" transform="translate(64.588 84.664)" fill="#cecece"/>
        <path id="Trazado_698" data-name="Trazado 698" d="M70.469,89.983c0,3.3-2,4.813-4.478,3.387s-4.478-5.261-4.478-8.557,2-4.816,4.478-3.385,4.478,5.257,4.478,8.555" transform="translate(66.553 87.517)" fill="#627681"/>
        <path id="Trazado_699" data-name="Trazado 699" d="M39.954,78.314c0,12.367-7.518,18.05-16.793,12.7S6.368,71.29,6.368,58.923s7.518-18.05,16.793-12.7S39.954,65.949,39.954,78.314" transform="translate(6.89 47.835)" fill="#2e373d"/>
        <path id="Trazado_700" data-name="Trazado 700" d="M26.982,66.94c0,6.081-3.7,8.875-8.257,6.242s-8.257-9.7-8.257-15.777,3.7-8.875,8.257-6.242,8.257,9.7,8.257,15.777" transform="translate(11.326 54.283)" fill="#cecece"/>
        <path id="Trazado_701" data-name="Trazado 701" d="M21.239,61.9c0,3.3-2,4.813-4.478,3.385s-4.478-5.261-4.478-8.557,2-4.816,4.478-3.385,4.478,5.259,4.478,8.557" transform="translate(13.289 57.136)" fill="#627681"/>
        <path id="Trazado_702" data-name="Trazado 702" d="M88.258,79.112C92,84.059,93.777,91.036,92.23,94.7s-5.834,2.619-9.573-2.328-5.519-11.921-3.972-15.581,5.832-2.619,9.573,2.326" transform="translate(84.528 80.712)" fill="#fff"/>
        <path id="Trazado_703" data-name="Trazado 703" d="M117.657,61.966c3.741,4.947,5.519,11.923,3.972,15.583s-5.832,2.619-9.573-2.328S106.54,63.3,108.085,59.641s5.834-2.619,9.573,2.326" transform="translate(116.338 62.161)" fill="#fff"/>
        <path id="Trazado_704" data-name="Trazado 704" d="M71.322,103.912,136.593,65.6,123.418,38.485a9.19,9.19,0,0,0-12.769-4L65.382,59.952a14.818,14.818,0,0,0-6.05,19.424Z" transform="translate(62.561 36.038)" fill="#43297c"/>
        <path id="Trazado_705" data-name="Trazado 705" d="M101.924,94.327l-8.388-15.7A77.223,77.223,0,0,0,59.174,45.562a41.961,41.961,0,0,0-39.324,1.4Z" transform="translate(21.476 44.729)" fill="#43297c"/>
        <path id="Trazado_706" data-name="Trazado 706" d="M111.176,62.2l-8.388-15.7A77.1,77.1,0,0,0,93.84,33.344a9.136,9.136,0,0,0-3.466,1.11L76.562,42.221Z" transform="translate(82.835 36.076)" fill="#59718b"/>
        <path id="Trazado_707" data-name="Trazado 707" d="M25.654,77.668,23.478,51.877,47.5,65.743,33.732,61.976l.779,14.136,13.98,6.816Z" transform="translate(25.402 56.128)" fill="#1a0428"/>
        <path id="Trazado_708" data-name="Trazado 708" d="M75.35,16.419,71.771,15.8l0,0a24.32,24.32,0,0,0-16.31,2.9L15.726,41.647A16.543,16.543,0,0,0,11.61,66.939l4.079.7L89.77,24.155A24.32,24.32,0,0,0,75.35,16.419" transform="translate(8.062 16.713)" fill="#40095d"/>
        <path id="Trazado_709" data-name="Trazado 709" d="M13.569,67.277a16.546,16.546,0,0,1,4.114-25.293L57.417,19.045A24.358,24.358,0,0,1,87.65,23.792Z" transform="translate(10.182 17.075)" fill="#43297c"/>
        <path id="Trazado_710" data-name="Trazado 710" d="M79.393,192.3H14.447A14.731,14.731,0,0,1,0,177.725L.691,14.153A14.213,14.213,0,0,1,14.969,0L80.215.3A14.212,14.212,0,0,1,94.362,14.574l-.691,163.572A14.213,14.213,0,0,1,79.393,192.3" transform="translate(0 0)" fill="#1a2e35"/>
        <path id="Trazado_711" data-name="Trazado 711" d="M77.87,3.286,65.22,3.228a3.143,3.143,0,0,0-3.085,3.2l-.01,2.294a3.14,3.14,0,0,1-3.085,3.2L34.382,11.8a3.146,3.146,0,0,1-3.058-3.227l.01-2.294a3.146,3.146,0,0,0-3.058-3.225l-4.449-.021-11.072-.05a9.952,9.952,0,0,0-10,9.91L2.081,172.554a9.953,9.953,0,0,0,9.906,10l65.117.3a9.954,9.954,0,0,0,10-9.91l.675-159.66a9.953,9.953,0,0,0-9.908-10" transform="translate(2.251 3.231)" fill="#f5f5f5"/>
        <path id="Trazado_712" data-name="Trazado 712" d="M25.316,75.151c-.075,1.928-.146,3.735-.2,5.238h9.354l-1.145-5.744Z" transform="translate(27.17 80.761)" fill="#f5f5f5"/>
        <path id="Trazado_713" data-name="Trazado 713" d="M6.952,77.262,7.033,80.1H43.827c.062-1.591.131-3.356.2-5.18Z" transform="translate(7.522 81.054)" fill="#f5f5f5"/>
        <path id="Trazado_714" data-name="Trazado 714" d="M29.281,75.228,30.432,81H47.675l-.206-6.927Z" transform="translate(31.68 80.147)" fill="#f5f5f5"/>
        <path id="Trazado_715" data-name="Trazado 715" d="M28.4,46.007l3.26-18.9-8.54-.633V46.007Z" transform="translate(25.018 28.639)" fill="#f5f5f5"/>
        <path id="Trazado_716" data-name="Trazado 716" d="M11.413,71,2.144,74.632,2.117,81.2l9.573-.606Z" transform="translate(2.291 76.819)" fill="#f5f5f5"/>
        <path id="Trazado_717" data-name="Trazado 717" d="M11.353,82.668l-.506-17.607h-.008V58.853l-8.594.91L2.134,86.27l9.215-3.61Z" transform="translate(2.309 63.675)" fill="#f5f5f5"/>
        <path id="Trazado_718" data-name="Trazado 718" d="M10.778,52.78,2.25,51.653l-.06,14.49,8.588-.91Z" transform="translate(2.369 55.886)" fill="#f5f5f5"/>
        <path id="Trazado_719" data-name="Trazado 719" d="M42.26,59.11,41.9,64.157l-10.07,1.085.779,3.993,11.432-.862-.173-5.725.914-3.791Z" transform="translate(34.44 63.679)" fill="#f5f5f5"/>
        <path id="Trazado_720" data-name="Trazado 720" d="M28.5,69.121l8.032-.606-1.749-8.961-7.01.706Z" transform="translate(30.05 64.434)" fill="#f5f5f5"/>
        <path id="Trazado_721" data-name="Trazado 721" d="M28.16,65.375l.614,7.474L29.863,83.1l.448,2.242,18.342-1.16-.608-20.305Z" transform="translate(30.467 69.11)" fill="#f5f5f5"/>
        <path id="Trazado_722" data-name="Trazado 722" d="M24.651,59.684l.706,1.21L11.21,69.145V88.717l14.93-1.056,28.777-2.9L53.862,71.926l-27.49-3.589.181-1.389L53.746,70.5,51.962,48.785,25.048,51.373l-.09-.929,26.928-2.588-.931-11.33H25.067L2.332,40.664l-.11,25.945,8.609,1.137ZM12.659,86.849s.106-16.139,0-16.741L24.2,63.967l1.5,22.058Z" transform="translate(2.404 39.52)" fill="#f5f5f5"/>
        <path id="Trazado_723" data-name="Trazado 723" d="M41.824,59.024,31.364,60.08l.793,4.062,9.375-1.01Z" transform="translate(33.934 63.86)" fill="#f5f5f5"/>
        <path id="Trazado_724" data-name="Trazado 724" d="M25.324,73.227c-.033.847-.065,1.691-.1,2.519l7.784-.491-.4-2.007Z" transform="translate(27.295 79.227)" fill="#f5f5f5"/>
        <path id="Trazado_725" data-name="Trazado 725" d="M33.388,47.283l1.372-6.217H45.211V27.71L12.533,25.291v12.54L2.325,40.137,2.278,51.4l22.6-4.114Z" transform="translate(2.464 27.363)" fill="#f5f5f5"/>
        <path id="Trazado_726" data-name="Trazado 726" d="M32.972,29.649,32.693,28.5l12.479-4.938L37.054,7.274a3.167,3.167,0,0,1-.448.035L22.816,7.245l.377,22.8Z" transform="translate(24.685 7.839)" fill="#f5f5f5"/>
        <path id="Trazado_727" data-name="Trazado 727" d="M43.806,25.391,43.792,3.144,34.71,3.1a3.142,3.142,0,0,0-3.085,3.2l-.01,2.294a3.245,3.245,0,0,1-1.335,2.634l8.122,16.3Z" transform="translate(32.761 3.356)" fill="#f5f5f5"/>
        <path id="Trazado_728" data-name="Trazado 728" d="M23.419,26.47,22.367,3.046,19.84,3.034,9.972,2.988,5.766,23.934ZM21.17,5.42,21.508,24.5l-13.12-1.92L11.26,5.42Z" transform="translate(6.238 3.233)" fill="#f5f5f5"/>
        <path id="Trazado_729" data-name="Trazado 729" d="M15.026,26.507l0,.2c.023,1.828.06,5.117.087,8.636l17.186-.7-.375-22.824-10.4-.048a3.144,3.144,0,0,1-3.058-3.225l.01-2.294a3.148,3.148,0,0,0-3.058-3.227l-1.455-.006,1.056,23.49Z" transform="translate(15.108 3.264)" fill="#f5f5f5"/>
        <path id="Trazado_730" data-name="Trazado 730" d="M8.036,23.733,12.2,2.991a9.946,9.946,0,0,0-9.773,9.9L2.384,23.232l.044-.3Z" transform="translate(2.579 3.236)" fill="#f5f5f5"/>
        <path id="Trazado_731" data-name="Trazado 731" d="M11.1,25.577l-8.74-.647L2.3,39.093,11.1,37.1Z" transform="translate(2.493 26.973)" fill="#f5f5f5"/>
        <path id="Trazado_732" data-name="Trazado 732" d="M8,13.588l-5.561-.8-.1,22.933,1.2.09Z" transform="translate(2.528 13.839)" fill="#f5f5f5"/>
        <path id="Trazado_733" data-name="Trazado 733" d="M21.1,79.732l.148-18.413L6.542,62.359l.52,18.04Z" transform="translate(7.078 66.344)" fill="#f5f5f5"/>
        <path id="Trazado_734" data-name="Trazado 734" d="M15.216,77l20.826,9.977c.248-6.521.471-12.617.45-13l.452-.025.221-.439c.3.148.3.148.139,4.593-.085,2.48-.208,5.779-.335,9.079h7.2L43.108,77.177,41.69,59.916,14.481,62.662Z" transform="translate(15.668 64.825)" fill="#f5f5f5"/>
        <path id="Trazado_735" data-name="Trazado 735" d="M52.448,54.706l-.235-2.428-24.962,2.6L28.3,67.668l21.554-2.176Z" transform="translate(29.484 56.562)" fill="#f5f5f5"/>
        <path id="Trazado_736" data-name="Trazado 736" d="M28.3,33.54H18.973l-1.064,4.818H28.3Z" transform="translate(19.376 36.289)" fill="#f5f5f5"/>
        <path id="Trazado_737" data-name="Trazado 737" d="M50.134,35.161,26.778,33.545l-.951,5.517.985,11.975,24.629-2.369Zm-22.5,3.891,1.253-3.481,20.284,1.282,1.174,9.96L28.325,49.426Z" transform="translate(27.943 36.294)" fill="#f5f5f5"/>
        <path id="Trazado_738" data-name="Trazado 738" d="M52.006,51.847,50.98,41.256,26.336,43.625l.926,11.27Z" transform="translate(28.494 44.636)" fill="#f5f5f5"/>
        <path id="Trazado_739" data-name="Trazado 739" d="M11.723,76.065l-9.56.6-.04-.62L2.111,78.87H11.8Z" transform="translate(2.284 82.28)" fill="#f5f5f5"/>
        <path id="Trazado_740" data-name="Trazado 740" d="M49.832,20.11l.142.356.031-7.333a9.954,9.954,0,0,0-9.908-10l-3.1-.015.015,22.06Z" transform="translate(40.026 3.379)" fill="#f5f5f5"/>
        <path id="Trazado_741" data-name="Trazado 741" d="M44.335,86.035,23.077,75.85l-.749-14.592-.889.09-.152,18.9L6.8,80.932l.012.421,0,.008,0,0,.281,9.743,37.14-2.35c.035-.9.069-1.813.1-2.721m-36.628-3.9,20.28-1.424,13.193,6.123L7.708,88.644Z" transform="translate(7.355 66.277)" fill="#f5f5f5"/>
        <path id="Trazado_742" data-name="Trazado 742" d="M46.618,32.528l.87-5.159c-7.624-2.719-8.151-10.67-8.13-13.077l-4.976,1.97L41.875,31.3Z" transform="translate(37.199 15.463)" fill="#f5f5f5"/>
        <path id="Trazado_743" data-name="Trazado 743" d="M27.584,58.173l10.364-1.078-2.042-9.154-9.069,1.118Z" transform="translate(29.036 51.869)" fill="#f5f5f5"/>
        <path id="Trazado_744" data-name="Trazado 744" d="M49.551,26.913l-19.358,0-1.607-.119L26.4,39.467l22.976,1.589-.533-5.511,2.263-8.14Z" transform="translate(28.563 28.985)" fill="#f5f5f5"/>
        <path id="Trazado_745" data-name="Trazado 745" d="M47.252,36.808l.242-6.05L39.886,15.487l-11.8,4.668,4.056,16.653ZM39.426,17.344,46.4,30.608l-1.008,4.133-11.929-.45L30.48,21.747Z" transform="translate(30.389 16.756)" fill="#f5f5f5"/>
        <path id="Trazado_746" data-name="Trazado 746" d="M38.739,63.434l.356,11.884,8.388-.471.027.464-8.4.473.427,14.224,7.93-.5.058.933-7.959.5.212,7.072H47.5l.169-39.661-7.9.8Z" transform="translate(41.913 63.135)" fill="#f5f5f5"/>
        <path id="Trazado_747" data-name="Trazado 747" d="M25.789,15.819,8.028,13.269,3.589,35.4l22.279,1.651c.087-3.408.01-13.859-.079-21.232" transform="translate(3.883 14.356)" fill="#f5f5f5"/>
        <path id="Trazado_748" data-name="Trazado 748" d="M34,33.844h2.688l-3.8-15.617-9.885.4.237,14.415Z" transform="translate(24.884 19.721)" fill="#f5f5f5"/>
        <path id="Trazado_749" data-name="Trazado 749" d="M2.1,82.861l-.015,3.275c0,.1.012.2.015.3Z" transform="translate(2.252 89.65)" fill="#f5f5f5"/>
        <path id="Trazado_750" data-name="Trazado 750" d="M14.509,31.5l17.449,1.293-.235-14.361-17.191.7c.035,4.857.05,10.037-.023,12.367" transform="translate(15.698 19.941)" fill="#f5f5f5"/>
        <path id="Trazado_751" data-name="Trazado 751" d="M46.645,47.012,31.416,48.888l2.044,9.163,14.111-1.468Z" transform="translate(33.99 50.864)" fill="#f5f5f5"/>
        <path id="Trazado_752" data-name="Trazado 752" d="M44.738,29.666l.976-5.79,4.2.329.052-12.467L37,16.87c-.264,8.771,5.244,11.857,7.734,12.8" transform="translate(40.026 12.7)" fill="#f5f5f5"/>
        <path id="Trazado_753" data-name="Trazado 753" d="M38.316,35.068l.529,5.467,9.5.658.048-11.259-7.953-2.511Z" transform="translate(41.455 29.67)" fill="#f5f5f5"/>
        <path id="Trazado_754" data-name="Trazado 754" d="M41.783,54.9,39.289,65.272l7.789-.785.048-10.878c-2.392-.629-4.478-1.143-5.6-1.357Z" transform="translate(42.508 56.533)" fill="#f5f5f5"/>
        <path id="Trazado_755" data-name="Trazado 755" d="M37.962,28.663l10.824,3.419.025-6.156L38.181,23.18Z" transform="translate(41.072 25.079)" fill="#f5f5f5"/>
        <path id="Trazado_756" data-name="Trazado 756" d="M41.39,63.237c.872.131,2.525.483,5.742,1.328l.1-23.784-7.943.764Z" transform="translate(42.508 44.122)" fill="#f5f5f5"/>
        <path id="Trazado_757" data-name="Trazado 757" d="M39.906,47.52l8.036-.772.05-11.7L38.636,34.4Z" transform="translate(41.802 37.219)" fill="#f5f5f5"/>
        <path id="Trazado_758" data-name="Trazado 758" d="M41.145,23.133q2.286.693,4.253,1.085l.025-5.9L42,18.047Z" transform="translate(44.516 19.526)" fill="#f5f5f5"/>
        <path id="Trazado_759" data-name="Trazado 759" d="M40.694,25.816l5.167,1.335.023-5.336q-2-.4-4.33-1.1Z" transform="translate(44.028 22.41)" fill="#f5f5f5"/>
        <path id="Trazado_760" data-name="Trazado 760" d="M11.718,155.115l.079,2.8h.468l-.081-2.834,37.077-2.346c-.071,1.822-.139,3.589-.2,5.18h.933c.06-1.5.131-3.31.2-5.238l8.005-.506,1.145,5.744h.477l-1.151-5.773L76.858,151l.208,6.924H79.4l-.212-7.072,7.959-.5-.058-.931-7.93.5-.427-14.224,8.4-.473-.025-.466-8.388.473-.356-11.886,1.031-4.283,7.9-.8,0-.468-7.791.787L82,108.2l-.256-2.648c1.122.217,3.208.729,5.6,1.357l.006-1.453c-3.217-.845-4.87-1.2-5.742-1.328l-2.1-21.692,7.943-.764,0-.939-8.036.774-1.27-13.122,9.356.647.006-1.4-9.5-.656-.529-5.469,2.124-7.645,7.953,2.511.01-2.442L76.745,50.512l.219-5.484,10.63,2.746.006-1.443L82.433,45l.86-5.1q2.327.706,4.33,1.1l0-.479c-1.314-.264-2.731-.622-4.253-1.085l.858-5.088,3.421.266,0-.935-4.2-.327-.976,5.788c-2.49-.939-8-4.024-7.734-12.8l12.966-5.132,0-.593-.139-.354L74.744,25.334,74.73,3.273l-.466,0,.015,22.248-5.4,2.138-8.122-16.3a3.014,3.014,0,0,1-1.3.529l8.117,16.291L55.089,33.112l.279,1.145-9.781.4-.375-22.8-.466,0,.375,22.824-17.186.7c-.027-3.518-.065-6.808-.087-8.636l0-.2h-.006L26.783,3.051l-.466,0,1.051,23.424L9.715,23.939l4.2-20.946-1.2-.006c-.077,0-.15.008-.227.01L8.326,23.739l-5.609-.806-.044.306v.16l5.561.8L3.773,46.421l-1.2-.087-.01,2.338,8.742.647V60.845l-8.8,1.99L2.5,64.272l10.206-2.309V49.424l32.678,2.421V65.2H34.936l-1.374,6.219H25.055l-22.6,4.112-.006,1.424,22.735-4.137H51.071L52,84.146,25.074,86.734l.09.931,26.913-2.588,1.784,21.713-27.192-3.552-.181,1.389,27.49,3.591,1.053,12.829-28.774,2.9-14.932,1.056V105.434l14.147-8.251-.706-1.21-13.82,8.061L2.337,102.9,2.33,104.31l8.528,1.126V117.89l-8.588.91-.006,1.407,8.594-.91v6.21h.006l.508,17.607,0-.01-9.217,3.612-.006,1.505,9.269-3.631.277,9.591-9.573.606,0,.31.04.622Zm38.516-3.371c.031-.829.065-1.674.1-2.521l7.289.021.4,2.007Zm8.253-.523-.446-2.244L56.95,138.728l-.612-7.474,19.882-1.5.61,20.305Zm4.522-30.511,10.46-1.056-.291,4.106L63.8,124.773Zm-.466.046,1.751,8.963-8.032.606-.729-8.861Zm13.651,8.065-11.432.862-.781-3.993,10.07-1.085.36-5.047,2.521-.254-.912,3.791ZM62.652,96.582l2.042,9.152-10.364,1.078L53.581,97.7Zm2.509,9.1-2.044-9.163,15.229-1.876.926,9.571ZM75.65,66.812,52.674,65.221,54.86,52.547l1.607.119,19.358,0,1.553.489L75.117,61.3ZM74.268,26.526c-.023,2.407.506,10.356,8.128,13.077l-.868,5.159-4.743-1.226L69.292,28.5Zm-6.283,2.486,7.609,15.273-.244,6.05H60.244L56.188,33.682Zm-12.5,5.707,3.8,15.617H56.6l-10.764-.8L45.6,35.123Zm-10.351.423L45.366,49.5,27.917,48.21c.073-2.328.058-7.51.021-12.365ZM9.623,24.4l17.759,2.55c.09,7.372.169,17.823.079,21.23L5.181,46.528ZM54.391,52.511l-3.26,18.906h-5.28V51.878ZM36.06,66.6h9.325v4.818H35Zm15.421,5.528.954-5.517,23.353,1.616,1.307,13.508L52.466,84.1ZM77.186,82.662l1.024,10.591L53.467,96.3l-.926-11.272ZM54.445,108.207l24.962-2.6.235,2.428-2.594,10.787L55.495,121Zm2.04,30.565,1.064,10.006h-7.2c.127-3.3.25-6.6.335-9.079.156-4.445.156-4.445-.139-4.593l-.221.439-.452.025c.021.387-.2,6.485-.45,13L28.594,138.6l-.735-14.34,27.209-2.744Zm-30.45-14.338-.146,18.413-14.038.666-.52-18.038ZM11.876,144.41l0,0,0-.008-.012-.421,14.488-.687.152-18.9.889-.09.749,14.594L49.4,149.082c-.035.908-.069,1.818-.1,2.721l-37.14,2.35Z" transform="translate(2.289 3.231)" fill="#fff"/>
        <path id="Trazado_761" data-name="Trazado 761" d="M27.515,70.6,7.235,72.025v6.508l33.473-1.811Z" transform="translate(7.828 76.386)" fill="#ececec"/>
        <path id="Trazado_762" data-name="Trazado 762" d="M48.235,35.8,27.951,34.518,26.7,38l.687,10.374,22.025-2.611Z" transform="translate(28.885 37.347)" fill="#ececec"/>
        <path id="Trazado_763" data-name="Trazado 763" d="M11.981,102.035l65.115.3a9.952,9.952,0,0,0,10-9.91L87.16,77.4H2.136L2.088,88.765v3.573a9.947,9.947,0,0,0,9.893,9.7" transform="translate(2.259 83.746)" fill="#ececec"/>
        <path id="Trazado_764" data-name="Trazado 764" d="M20.144,23.232,19.806,4.156H9.9L7.025,21.313Z" transform="translate(7.601 4.496)" fill="#ececec"/>
        <path id="Trazado_765" data-name="Trazado 765" d="M44.147,33.775l1.008-4.133L38.183,16.379l-8.946,4.4,2.981,12.544Z" transform="translate(31.632 17.721)" fill="#ececec"/>
        <path id="Trazado_766" data-name="Trazado 766" d="M7.235,55.848c.106.6,0,16.741,0,16.741l13.039-.824-1.5-22.058Z" transform="translate(7.828 53.779)" fill="#ececec"/>
        <path id="Trazado_767" data-name="Trazado 767" d="M28.483,65.644l-.689-10,22.364-2.875v1.724l-2.7,9.2Z" transform="translate(30.071 57.09)" fill="#ececec"/>
        <path id="Trazado_768" data-name="Trazado 768" d="M21.623,20.009A1.811,1.811,0,1,1,19.811,18.2a1.811,1.811,0,0,1,1.811,1.811" transform="translate(19.475 19.689)" fill="#3a1b5a"/>
        <path id="Trazado_769" data-name="Trazado 769" d="M40.3,71.977a1.164,1.164,0,1,1-1.164-1.164A1.163,1.163,0,0,1,40.3,71.977" transform="translate(41.088 76.615)" fill="#3a1b5a"/>
        <path id="Trazado_770" data-name="Trazado 770" d="M66.373,127.7l-.281-6.523-19.66.956a2.981,2.981,0,0,1-1.484-.314L17.063,107.738a2.023,2.023,0,0,1-1.106-1.7l-3.8-73.611a1.231,1.231,0,0,1,1.322-1.291l11.95.885V18.958h1.4V32.2a1.23,1.23,0,0,1-1.322,1.228l-11.94-.885,3.785,73.42a.627.627,0,0,0,.339.523l27.885,14.082a1.545,1.545,0,0,0,.785.167l19.824-.964a1.245,1.245,0,0,1,.893.323,1.227,1.227,0,0,1,.4.86l.287,6.687Z" transform="translate(13.155 20.511)" fill="#3a1b5a"/>
        <g id="Grupo_307" data-name="Grupo 307" transform="translate(36.563 37.068)" opacity="0.5">
          <g id="Grupo_306" data-name="Grupo 306">
            <g id="Grupo_305" data-name="Grupo 305" clip-path="url(#clip-path-3)">
              <path id="Trazado_771" data-name="Trazado 771" d="M23.007,20.412a2.724,2.724,0,1,1-2.838-2.6,2.723,2.723,0,0,1,2.838,2.6" transform="translate(-17.562 -17.805)" fill="#3a1b5a"/>
            </g>
          </g>
        </g>
        <path id="Trazado_772" data-name="Trazado 772" d="M19.645,60.827A3.528,3.528,0,1,1,16.116,57.3a3.529,3.529,0,0,1,3.529,3.529" transform="translate(13.621 61.993)" fill="#3a1b5a"/>
        <path id="Trazado_773" data-name="Trazado 773" d="M18.008,60.266a2.451,2.451,0,1,1-2.45-2.45,2.451,2.451,0,0,1,2.45,2.45" transform="translate(14.179 62.553)" fill="#fafafa"/>
        <path id="Trazado_774" data-name="Trazado 774" d="M33.938,51.523h-16.8A1.479,1.479,0,0,0,15.659,53v6.085a1.479,1.479,0,0,0,1.478,1.478h.2v1.449l1.682-1.449H33.938a1.479,1.479,0,0,0,1.478-1.478V53a1.479,1.479,0,0,0-1.478-1.478" transform="translate(16.942 55.745)" fill="#ff4f5b"/>
        <path id="Trazado_775" data-name="Trazado 775" d="M33.938,51.523h-16.8A1.479,1.479,0,0,0,15.659,53v6.085a1.479,1.479,0,0,0,1.478,1.478h.2v1.449l1.682-1.449H33.938a1.479,1.479,0,0,0,1.478-1.478V53a1.479,1.479,0,0,0-1.478-1.478" transform="translate(16.942 55.745)" fill="#7f47dd"/>
      </g>
    </g>
    <text id="PEDIDO" transform="translate(34.157 111.889)" fill="#fafafa" font-size="3" font-family="Montserrat-ExtraBold, Montserrat" font-weight="800"><tspan x="0" y="0" letter-spacing="-0.009em">P</tspan><tspan y="0">EDIDO</tspan></text>
    <g id="Grupo_311" data-name="Grupo 311">
      <g id="Grupo_310" data-name="Grupo 310" clip-path="url(#clip-path)">
        <path id="Trazado_776" data-name="Trazado 776" d="M24.2,16.533A3.493,3.493,0,1,0,17.7,18.3h0l.01.012c.133.227.3.387.471.625l2.028,2.688a.633.633,0,0,0,1.008,0l1.994-2.642a7.893,7.893,0,0,0,.506-.672l.008-.01h0a3.477,3.477,0,0,0,.483-1.763m-3.493,1.52a1.538,1.538,0,1,1,1.536-1.536,1.537,1.537,0,0,1-1.536,1.536" transform="translate(18.629 14.109)" fill="#3a1b5a"/>
        <path id="Trazado_777" data-name="Trazado 777" d="M11.546,82.633v4.53H10.5V83.474H9.592v-.841Z" transform="translate(10.377 89.404)" fill="#1a2e35"/>
        <path id="Trazado_778" data-name="Trazado 778" d="M12.146,84.854a1.49,1.49,0,0,1-.175.647l-.369.931h-.641l.285-1.028a.56.56,0,0,1-.35-.55.625.625,0,0,1,1.249,0" transform="translate(11.79 91.133)" fill="#1a2e35"/>
        <path id="Trazado_779" data-name="Trazado 779" d="M13.53,82.633v4.53H12.481V83.474h-.906v-.841Z" transform="translate(12.523 89.404)" fill="#1a2e35"/>
        <path id="Trazado_780" data-name="Trazado 780" d="M12.893,84.94c0-1.495.829-2.344,1.942-2.344s1.942.849,1.942,2.344-.822,2.342-1.942,2.342-1.942-.847-1.942-2.342m2.829,0c0-1.028-.362-1.457-.887-1.457s-.881.429-.881,1.457.362,1.457.881,1.457.887-.429.887-1.457" transform="translate(13.949 89.364)" fill="#1a2e35"/>
        <path id="Trazado_781" data-name="Trazado 781" d="M15,84.94c0-1.495.829-2.344,1.942-2.344s1.942.849,1.942,2.344-.822,2.342-1.942,2.342S15,86.435,15,84.94m2.829,0c0-1.028-.362-1.457-.887-1.457s-.881.429-.881,1.457.362,1.457.881,1.457.887-.429.887-1.457" transform="translate(16.233 89.364)" fill="#1a2e35"/>
        <path id="Trazado_782" data-name="Trazado 782" d="M23.982,84.653v1.994h-1.01V84.809c0-.564-.252-.822-.66-.822-.454,0-.77.291-.77.912v1.749h-1.01V84.809c0-.564-.239-.822-.66-.822-.448,0-.764.291-.764.912v1.749H18.1V83.164h.964v.4a1.411,1.411,0,0,1,1.1-.454,1.3,1.3,0,0,1,1.145.57,1.566,1.566,0,0,1,1.255-.57,1.349,1.349,0,0,1,1.424,1.541" transform="translate(19.581 89.922)" fill="#1a2e35"/>
        <path id="Trazado_783" data-name="Trazado 783" d="M12.37,84.495a3.908,3.908,0,1,1-3.908-3.908,3.907,3.907,0,0,1,3.908,3.908" transform="translate(4.927 87.19)" fill="#3a1b59"/>
        <path id="Trazado_784" data-name="Trazado 784" d="M5.73,84.108a5.955,5.955,0,0,1,1-.062c.639-.017,1.551-.033,2.644-.044l-.081.175c-.308-.356-.643-.745-1-1.151l-.062-.073.06-.077c.314-.391.643-.8.985-1.228l.1.2H8.932l-3.2-.013.108-.108c-.01,1.187-.025,2.182-.044,2.883a7.032,7.032,0,0,1-.065,1.1,7.032,7.032,0,0,1-.065-1.1c-.019-.7-.033-1.7-.044-2.883l0-.108h.11l3.2-.013h.7l-.16.2c-.344.423-.677.835-.991,1.224l0-.15.979,1.166.148.177-.227,0c-1.093-.01-2-.027-2.644-.044a5.96,5.96,0,0,1-1-.062" transform="translate(6.08 88.287)" fill="#fafafa"/>
      </g>
    </g>
    <text id="Distancia" transform="translate(19.664 169.824)" fill="#1a2e35" font-size="2" font-family="Montserrat-Bold, Montserrat" font-weight="700"><tspan x="0" y="0">Dista</tspan><tspan y="0" letter-spacing="0.006em">n</tspan><tspan y="0">cia</tspan></text>
    <g id="Grupo_334" data-name="Grupo 334">
      <g id="Grupo_333" data-name="Grupo 333" clip-path="url(#clip-path)">
        <path id="Trazado_785" data-name="Trazado 785" d="M44.1,79.262H32.285a2.26,2.26,0,0,0-2.259,2.259v9.3a2.26,2.26,0,0,0,2.259,2.261h.3v2.215l2.571-2.215H44.1a2.26,2.26,0,0,0,2.257-2.261v-9.3A2.259,2.259,0,0,0,44.1,79.262" transform="translate(32.486 85.756)" fill="#7f47dd"/>
        <path id="Trazado_786" data-name="Trazado 786" d="M43.541,84.424v1.17l-.05.137a.868.868,0,0,1-.862.6,1.61,1.61,0,0,0-1.507-1.878,1.562,1.562,0,0,0-1.149.421,1.58,1.58,0,0,0-.5,1.464H35.448a1.6,1.6,0,1,0-3.15-.006,1.11,1.11,0,0,1-1.314-1.1c0-.356,0-.712,0-1.068a.892.892,0,0,1,.906-.908c.246,0,.489,0,.735,0a.2.2,0,0,0,.179-.083c.387-.458.783-.912,1.17-1.372a1.161,1.161,0,0,1,.945-.437c.933,0,1.867,0,2.8,0a1.175,1.175,0,0,1,.789.283q.928.771,1.859,1.539a.429.429,0,0,0,.175.085c.7.131,1.409.26,2.117.381a.974.974,0,0,1,.76.473,2.461,2.461,0,0,1,.119.3M37.77,83.256v0h1.395c.079,0,.154,0,.187-.09a.165.165,0,0,0-.077-.2c-.425-.333-.845-.67-1.274-1a.389.389,0,0,0-.227-.079c-.46-.008-.922,0-1.382,0a.3.3,0,0,0-.325.327c0,.231,0,.464,0,.7a.306.306,0,0,0,.346.344c.454,0,.906,0,1.357,0m-3.333,0c.206,0,.414,0,.623,0a.294.294,0,0,0,.308-.3c0-.256.006-.512,0-.768a.292.292,0,0,0-.294-.294c-.1,0-.206,0-.31,0a.332.332,0,0,0-.271.127c-.275.323-.552.641-.82.966a.213.213,0,0,0-.04.185.219.219,0,0,0,.169.085c.212.01.423,0,.635,0m2.228,1.093h0c.075,0,.15,0,.223,0a.3.3,0,0,0,0-.591c-.146-.006-.291-.006-.435,0a.294.294,0,0,0-.281.291.3.3,0,0,0,.287.3c.069,0,.139,0,.21,0" transform="translate(33.522 88.033)" fill="#fff"/>
        <path id="Trazado_787" data-name="Trazado 787" d="M32.872,85.577l-.177-.05a1.292,1.292,0,1,1,.608.023.531.531,0,0,0-.081.027Zm.772-1.291a.6.6,0,1,0-.593.593.6.6,0,0,0,.593-.593" transform="translate(34.35 89.791)" fill="#fff"/>
        <path id="Trazado_788" data-name="Trazado 788" d="M36.318,85.575c-.058-.015-.117-.031-.177-.048a1.292,1.292,0,1,1,.608.023c-.029.006-.054.017-.081.025Zm.772-1.289a.6.6,0,1,0-.593.593.6.6,0,0,0,.593-.593" transform="translate(38.078 89.791)" fill="#fff"/>
        <path id="Trazado_789" data-name="Trazado 789" d="M48.754,81.653V121.37l-7.77,4.487-1.94,1.12L31.43,131.37V91.653l7.614-4.393,1.94-1.12Z" transform="translate(34.006 88.344)" fill="#c99a6b"/>
        <path id="Trazado_790" data-name="Trazado 790" d="M40.889,91.918v39.717l-8.244-4.759L30.7,125.747l-8.007-4.622V81.408l8.007,4.63,1.949,1.12Z" transform="translate(24.548 88.078)" fill="#ae835b"/>
        <path id="Trazado_791" data-name="Trazado 791" d="M32.7,91.92l-3.419-1.974V86.022L32.7,88Zm-3.194-2.1,2.969,1.713v-3.4l-2.969-1.715Z" transform="translate(31.68 93.07)" fill="#87623f"/>
        <path id="Trazado_792" data-name="Trazado 792" d="M30.675,89.506l-.754-.435V87.093l.754.437Z" transform="translate(32.373 94.229)" fill="#87623f"/>
        <path id="Trazado_793" data-name="Trazado 793" d="M31.8,88.725l-2.238-1.291,1.12-.7Z" transform="translate(31.987 93.837)" fill="#87623f"/>
        <path id="Trazado_794" data-name="Trazado 794" d="M40.891,97.116l-18.2-10.51,17.324-10,18.2,10.51Z" transform="translate(24.548 82.881)" fill="#e8b687"/>
        <path id="Trazado_795" data-name="Trazado 795" d="M44.545,90.392l-18.2-10.51,1.942-1.122,18.2,10.51Z" transform="translate(28.501 85.213)" fill="#ebcbab"/>
        <path id="Trazado_796" data-name="Trazado 796" d="M28.483,84.753V124.47l-1.949-1.128V83.631Z" transform="translate(28.709 90.484)" fill="#9c754e"/>
        <g id="Grupo_314" data-name="Grupo 314" transform="translate(55.247 164.11)" style="mix-blend-mode: screen;isolation: isolate">
          <g id="Grupo_313" data-name="Grupo 313">
            <g id="Grupo_312" data-name="Grupo 312" clip-path="url(#clip-path-6)">
              <path id="Trazado_797" data-name="Trazado 797" d="M28.479,89.95l17.324-10L43.86,78.826l-17.324,10Z" transform="translate(-26.536 -78.826)" fill="#54493e"/>
            </g>
          </g>
        </g>
        <path id="Trazado_798" data-name="Trazado 798" d="M22.689,81.408l18.2,10.51-9.579-5.255Z" transform="translate(24.548 88.079)" fill="#87623f"/>
        <path id="Trazado_799" data-name="Trazado 799" d="M48.756,81.652l-17.324,10L41.013,86.4Z" transform="translate(34.007 88.343)" fill="#87623f"/>
        <path id="Trazado_800" data-name="Trazado 800" d="M26.748,79.106l.137-.079,8.921,5.151,8.736-5.045.133.077-8.736,5.045,9.148,5.282-.137.079L35.8,84.334l-8.451,4.88-.133-.077,8.451-4.88Z" transform="translate(28.939 85.502)" fill="#d1a986"/>
        <path id="Trazado_801" data-name="Trazado 801" d="M37.027,83.808v39.717l-1.94,1.122V84.93Z" transform="translate(37.962 90.675)" fill="#d9af84"/>
        <path id="Trazado_802" data-name="Trazado 802" d="M43.307,124.025l14.6-8.432V98.836l-14.6,8.432Z" transform="translate(46.855 106.934)" fill="#c99a6b"/>
        <path id="Trazado_803" data-name="Trazado 803" d="M50.9,124.025l-14.6-8.432V98.836l14.6,8.432Z" transform="translate(39.265 106.934)" fill="#ae835b"/>
        <path id="Trazado_804" data-name="Trazado 804" d="M44.429,107.558l-3.083-1.78v-3.537l3.083,1.78Zm-2.879-1.9,2.675,1.545v-3.069l-2.675-1.545Z" transform="translate(44.734 110.618)" fill="#87623f"/>
        <path id="Trazado_805" data-name="Trazado 805" d="M42.6,105.38l-.681-.393v-1.78l.681.391Z" transform="translate(45.358 111.663)" fill="#87623f"/>
        <path id="Trazado_806" data-name="Trazado 806" d="M43.62,104.678,41.6,103.514l1.01-.635Z" transform="translate(45.011 111.309)" fill="#87623f"/>
        <path id="Trazado_807" data-name="Trazado 807" d="M50.9,111.649l-14.6-8.432,14.6-8.432,14.6,8.432Z" transform="translate(39.265 102.552)" fill="#e8b687"/>
        <path id="Trazado_808" data-name="Trazado 808" d="M46.468,108.385l2.346-1.355V100.41l-2.346,1.355Z" transform="translate(50.275 108.637)" fill="#d9af84"/>
        <path id="Trazado_809" data-name="Trazado 809" d="M54.058,106.147l-14.6-8.432L41.8,96.36l14.6,8.432Z" transform="translate(42.686 104.255)" fill="#ebcbab"/>
        <path id="Trazado_810" data-name="Trazado 810" d="M54.579,105.181l-14.6-8.432.133-.077,14.6,8.432Z" transform="translate(43.25 104.593)" fill="#d1a986"/>
        <path id="Trazado_811" data-name="Trazado 811" d="M36.292,98.836l14.6,8.432-7.88-4.216Z" transform="translate(39.266 106.934)" fill="#87623f"/>
        <path id="Trazado_812" data-name="Trazado 812" d="M32.12,120.757,45.5,113.036v-9.594L32.12,111.164Z" transform="translate(34.752 111.918)" fill="#c99a6b"/>
        <path id="Trazado_813" data-name="Trazado 813" d="M39.072,120.757,25.7,113.036v-9.594l13.376,7.722Z" transform="translate(27.801 111.918)" fill="#ae835b"/>
        <path id="Trazado_814" data-name="Trazado 814" d="M33.165,111.509l-2.823-1.63v-3.239l2.823,1.63Zm-2.638-1.736,2.45,1.416v-2.813l-2.45-1.416Z" transform="translate(32.828 115.377)" fill="#87623f"/>
        <path id="Trazado_815" data-name="Trazado 815" d="M31.493,109.514l-.623-.36v-1.63l.623.358Z" transform="translate(33.399 116.334)" fill="#87623f"/>
        <path id="Trazado_816" data-name="Trazado 816" d="M32.423,108.871,30.576,107.8l.922-.581Z" transform="translate(33.081 116.01)" fill="#87623f"/>
        <path id="Trazado_817" data-name="Trazado 817" d="M39.072,115.178,25.7,107.456l13.376-7.724,13.376,7.724Z" transform="translate(27.801 107.904)" fill="#e8b687"/>
        <path id="Trazado_818" data-name="Trazado 818" d="M30.477,112.267l-2.149-1.241v-6.065l2.149,1.241Z" transform="translate(30.65 113.562)" fill="#9c754e"/>
        <g id="Grupo_317" data-name="Grupo 317" transform="translate(58.978 210.802)" style="mix-blend-mode: screen;isolation: isolate">
          <g id="Grupo_316" data-name="Grupo 316">
            <g id="Grupo_315" data-name="Grupo 315" clip-path="url(#clip-path-7)">
              <path id="Trazado_819" data-name="Trazado 819" d="M30.477,110.216l13.376-7.722-2.149-1.241-13.376,7.722Z" transform="translate(-28.328 -101.252)" fill="#54493e"/>
            </g>
          </g>
        </g>
        <path id="Trazado_820" data-name="Trazado 820" d="M25.7,103.442l13.376,7.722-7.218-3.86Z" transform="translate(27.801 111.918)" fill="#87623f"/>
        <path id="Trazado_821" data-name="Trazado 821" d="M28.96,109.34l13.376-7.722-.148-.085-13.376,7.722Z" transform="translate(31.173 109.852)" fill="#d1a986"/>
        <g id="Grupo_320" data-name="Grupo 320" transform="translate(80.249 187.749)" style="mix-blend-mode: multiply;isolation: isolate">
          <g id="Grupo_319" data-name="Grupo 319">
            <g id="Grupo_318" data-name="Grupo 318" clip-path="url(#clip-path-8)">
              <path id="Trazado_822" data-name="Trazado 822" d="M80.987,94.421c-9.752-5.632-25.514-5.659-35.206-.065s-9.641,14.7.11,20.326,25.514,5.659,35.206.065,9.641-14.7-.11-20.326" transform="translate(-38.545 -90.181)" fill="#f5f2e8"/>
            </g>
          </g>
        </g>
        <path id="Trazado_823" data-name="Trazado 823" d="M52.941,91.663s-4.366,2.632-5.172,3.013-4.372,2.709-4.945,3.566a2.143,2.143,0,0,0-.285,2.017,3.334,3.334,0,0,0,1.994,1.407,15.3,15.3,0,0,0,6.129-1.307,6.045,6.045,0,0,0,2.017-1.534c.26-.092,1.922-.5,1.922-.5a1.329,1.329,0,0,0,1.162.108c.777-.208,3.123-.879,3.312-1.5a9.91,9.91,0,0,0-.012-3.86c-.314-1.053-6.123-1.414-6.123-1.414" transform="translate(45.882 99.174)" fill="#1e1e1e"/>
        <path id="Trazado_824" data-name="Trazado 824" d="M46.052,79.625c1.274,10.206,1.253,11.728,1.387,14.159.154,2.432,1.482,30.065,1.445,30.446-.019.36,2.224,1.976,4.372,1.805h.019c2.128-.171,2.813-.437,2.927-1.33.133-.893,1.691-23.738.8-26.226a176.47,176.47,0,0,0,1.482-19.12c.171-6.442-.019-10.795-.019-10.795l-12.829-6.2a76.509,76.509,0,0,0,.418,17.257" transform="translate(49.06 67.478)" fill="#7282b5"/>
        <g id="Grupo_323" data-name="Grupo 323" transform="translate(102.334 144.995)" style="mix-blend-mode: multiply;isolation: isolate">
          <g id="Grupo_322" data-name="Grupo 322">
            <g id="Grupo_321" data-name="Grupo 321" clip-path="url(#clip-path-9)">
              <path id="Trazado_825" data-name="Trazado 825" d="M49.153,118.166c2.128-.171,2.813-.437,2.927-1.33.133-.893,1.691-23.738.8-26.228A176.435,176.435,0,0,0,54.36,71.489l-4.674-1.845a10.649,10.649,0,0,1,2.28,6.748C52,80.743,50.6,87.719,50.825,93.1c.229,5.4-.264,20.051-.589,22.978a4.043,4.043,0,0,1-1.083,2.09" transform="translate(-49.153 -69.644)" fill="#e8d0c8"/>
            </g>
          </g>
        </g>
        <path id="Trazado_826" data-name="Trazado 826" d="M56.407,95.822a4.847,4.847,0,0,0-.406.506c-.685.9-2.082,2.8-2.956,3.847a22.409,22.409,0,0,0-3.327,5.884c-.137.945.1,1.02.329,1.307a4.477,4.477,0,0,0,3.673.968,7.969,7.969,0,0,0,5.024-2.958c1.187-1.445,3.233-4.576,3.67-5.136s1.949-1.713,2.194-2.253a5.37,5.37,0,0,0-.412-3.273c-.46-.647-7.922,1.035-7.922,1.035Z" transform="translate(53.748 102.314)" fill="#1e1e1e"/>
        <path id="Trazado_827" data-name="Trazado 827" d="M48.964,75.944c.645,2.432,4.676,5.284,4.676,5.284s.645,6.215,1.464,19.156c.323,4.847.893,17.238,2.224,31.645a5.158,5.158,0,0,0,6.175.893,7.218,7.218,0,0,0,1.749-1.178A184.79,184.79,0,0,0,66.467,112.4c-.019-3.65-.872-12.144-.893-13.855-.987-5.055,4.012-13.8,3.575-29.078a13.4,13.4,0,0,0-.192-2.034c-2.072-12.9-20.486-.456-20.486-.456s-.173,6.539.493,8.971" transform="translate(52.42 66.619)" fill="#7282b5"/>
        <path id="Trazado_828" data-name="Trazado 828" d="M56.237,129.379c2.4-12.639.448-27.494-.2-32.376-.065-.493-.115-.877-.144-1.137-.262-2.282.77-7.938,1.863-13.926.221-1.214.448-2.453.668-3.7a42.661,42.661,0,0,0,.348-13.356l-.466.081a42.412,42.412,0,0,1-.35,13.191c-.221,1.243-.448,2.48-.668,3.7-1.147,6.283-2.136,11.711-1.868,14.063.031.26.081.648.146,1.145.639,4.863,2.582,19.66.2,32.224Z" transform="translate(59.918 70.206)" fill="#a0abcd"/>
        <g id="Grupo_326" data-name="Grupo 326" transform="translate(115.922 134.048)" style="mix-blend-mode: multiply;isolation: isolate">
          <g id="Grupo_325" data-name="Grupo 325">
            <g id="Grupo_324" data-name="Grupo 324" clip-path="url(#clip-path-10)">
              <path id="Trazado_829" data-name="Trazado 829" d="M55.68,129.878a7.152,7.152,0,0,0,1.749-1.178,185.407,185.407,0,0,0,1.216-19.347c-.019-3.65-.874-12.144-.893-13.855-.989-5.055,4.01-13.8,3.573-29.078a13.1,13.1,0,0,0-.189-2.032c-.97.416-1.559.683-1.559.683s.533,5.892-1.349,15.889-2.317,12.619-1.994,14.426c.341,1.824.664,5.871.893,14.975.248,9.1.248,17.978-1.426,19.5Z" transform="translate(-55.68 -64.385)" fill="#e8d0c8"/>
            </g>
          </g>
        </g>
        <path id="Trazado_830" data-name="Trazado 830" d="M48.114,68.2a4.011,4.011,0,0,0,1.843-.341,3.011,3.011,0,0,0,1.33-1.255c2.074-3.687,3.079-26.626,3.079-26.626a5.755,5.755,0,0,0-4.826,3.762c-.874,2.3-2.111,9.029-3.4,14.255a24.49,24.49,0,0,1-2.053,6.081l-.021.037a2.487,2.487,0,0,1-.189.248c-1.368,1.616,1.559,3.762,4.239,3.839" transform="translate(47.093 43.252)" fill="#ffc79e"/>
        <path id="Trazado_831" data-name="Trazado 831" d="M37.194,74.377c.4,1.253,2.756.379,3.858.115,1.083-.266,3.4-3.289,3.4-3.289a3.581,3.581,0,0,0,.7-1.747,1.956,1.956,0,0,1,.056-.477c.152-.664.76-1.405,2.908-3.21,2.679-2.242,8.3-7.526,8.819-9.845.037-.208.094-.4.131-.589.306-1.539.21-2.034-1.462-1.52v.019a7.023,7.023,0,0,0-.97.323,6.354,6.354,0,0,1-2.679-1.216,2.288,2.288,0,0,1-.76-1.389l-.019.04c-.229.208-2.034,2.224-4.924,7.487C43.18,64.7,42.915,65.35,42.1,66c-.8.627-1.5,1.083-1.5,1.083a27.163,27.163,0,0,0-2.927,1.9A14.473,14.473,0,0,0,37,71.071a10.256,10.256,0,0,0,.189,3.306" transform="translate(39.977 55.775)" fill="#ffc79e"/>
        <path id="Trazado_832" data-name="Trazado 832" d="M40.716,79.964a6.4,6.4,0,0,1,.456,1.541c.152-.666.76-1.407,2.908-3.212,2.679-2.242,8.3-7.526,8.817-9.845.04-.208.1-.4.133-.589a3,3,0,0,0,1.33-1.253c2.072-3.687,3.079-26.628,3.079-26.628a5.755,5.755,0,0,0-4.826,3.764c-.874,2.3-2.111,9.027-3.4,14.253.76,1.2,2.357,3.137,2.357,3.137v5.226a8.5,8.5,0,0,1-.379,1.843,10.809,10.809,0,0,1-1.938,3.783c-1.33,1.445-7.659,7.982-7.659,7.982s-1.1-.379-.874,0" transform="translate(44.019 43.252)" fill="#edb48a"/>
        <path id="Trazado_833" data-name="Trazado 833" d="M53.935,39.021a6.236,6.236,0,0,0-5.119,4.266c-1.614,4.1-4.6,13.905-4.6,13.905a10.749,10.749,0,0,0,6.577,4.622c4.278.8,3.144-22.793,3.144-22.793" transform="translate(47.837 42.218)" fill="#452775"/>
        <path id="Trazado_834" data-name="Trazado 834" d="M49.874,60.33,35.115,63.2l7.951,4.153,13.139-3.217Z" transform="translate(37.992 65.274)" fill="#2d2c37"/>
        <path id="Trazado_835" data-name="Trazado 835" d="M51.136,92.765c7.185,2.642,15.49,1.882,18.529,1.178a4.136,4.136,0,0,0,.61-.152c2.7-.816,2.717-1.33,2.813-2.509.075-1.178-.133-6.081.531-13.685A77.777,77.777,0,0,1,76.7,63.116c.493-1.634.837-2.661.837-2.661,0-.152,1.464-5.871,1.464-7.639,0-1.749-.514-3.612-3.879-6.5s-6.327-5.3-7.849-6.348c-1.539-1.026-12.6-1.085-15.146-.362-2.527.722-3.612,3.916-4.01,5.854-.381,1.92-1.749,11.44-1.634,15.223.112,3.8.531,7.166.55,11.573,0,4.391-1.749,14.292-1.749,14.292s-1.139,3.65,5.854,6.215" transform="translate(48.918 42.328)" fill="#3a1b5a"/>
        <g id="Grupo_329" data-name="Grupo 329" transform="translate(98.616 99.18)" style="mix-blend-mode: multiply;isolation: isolate">
          <g id="Grupo_328" data-name="Grupo 328">
            <g id="Grupo_327" data-name="Grupo 327" clip-path="url(#clip-path-11)">
              <path id="Trazado_836" data-name="Trazado 836" d="M64.7,69.189c.822-3.8,2.523-21.55,2.523-21.55,3.648.533,5.523,2.729,7.139,6.265a77.74,77.74,0,0,0-3.079,14.482c-.664,7.6-.456,12.506-.531,13.685-.1,1.176-.115,1.691-2.813,2.507a4.125,4.125,0,0,1-.61.154c.1-1.826,1.183-6.389,1.164-9.943,0-.212-.021-.375-.029-.562-3.931.641-18.575,2.913-20.89,1.566C45.6,74.638,58.072,71,64.7,69.189" transform="translate(-47.367 -47.638)" fill="#dedede"/>
            </g>
          </g>
        </g>
        <path id="Trazado_837" data-name="Trazado 837" d="M63.908,43.733s-5.39-.162-6.254,8-1.222,18.517-1.222,18.517,3.048,7.193,5.836,5.763c1.3-3.7,3.5-10.828,3.627-14.99s1.955-17.69-1.986-17.288" transform="translate(61.056 47.306)" fill="#ffc79e"/>
        <path id="Trazado_838" data-name="Trazado 838" d="M76.736,57.986s-2.357-1.545-3.6-1.366C73.13,56.6,58.966,61.8,55.1,61.259s-5.415-.92-5.734-1.355-1.495-.614-1.495-.614a13.161,13.161,0,0,0-3.112.427,22.51,22.51,0,0,0-3.038,1.778,4.463,4.463,0,0,0-.6,1.189c-.008.306.6.681.6.681a10.371,10.371,0,0,0,0,1.42c.065.237.87.192.87.192a8.422,8.422,0,0,1,.768.425,1.021,1.021,0,0,0,.681.164,2.279,2.279,0,0,0-.312.912c-.012.427,1.37.87,1.37.87l1.843-.606a12.066,12.066,0,0,0,2.765.083,27.451,27.451,0,0,1,4.639-.735c1.678.05,24.211-2.415,24.5-4.016s-.439-2.711-2.1-4.087" transform="translate(44.487 61.244)" fill="#ffc79e"/>
        <path id="Trazado_839" data-name="Trazado 839" d="M39.828,59.276a2.531,2.531,0,0,0-.577.835c-.106.375-.185,1.382-.344,1.947s-.179.672-.179.672-.662.5-.67.816.962.5,1.28.4,1.018-.271,1.257-.831a9.006,9.006,0,0,0,.4-1.266l.735-.277s1.634.206,1.7-1.053A1.594,1.594,0,0,0,41.7,58.882a10.5,10.5,0,0,0-1.874.393" transform="translate(41.176 63.706)" fill="#ffc79e"/>
        <path id="Trazado_840" data-name="Trazado 840" d="M50.617,46.059a10.9,10.9,0,0,1,.077,3.82c-.04.115-.058.229-.1.341-.627,2.263-1.235,3.4,1.5,4.2,1.6.475,4.41-.4,6.71-1.522h.019c1.861-.893,3.383-1.957,3.629-2.584a2.393,2.393,0,0,0,.058-2.2,10.173,10.173,0,0,1-2.471-5.4c-.475-2.53-.837-5.532-1.045-7.4-.115-1.083-.189-1.765-.189-1.765s-4.543-3.383-7.147-.874-2.186,7.809-2.186,7.809a48.983,48.983,0,0,1,1.141,5.55s.019.019,0,.019" transform="translate(53.503 34.356)" fill="#ffc79e"/>
        <path id="Trazado_841" data-name="Trazado 841" d="M50,48.367a6.059,6.059,0,0,0,1.976-.456c3.46-1.274,4.3-1.824,6.121-.323.968.816.741,2.261.133,3.458,1.861-.893,3.383-1.957,3.629-2.584a2.392,2.392,0,0,0,.058-2.2,10.175,10.175,0,0,1-2.471-5.4c-.475-2.527-.837-5.53-1.045-7.393-3.631.056-7.337,2.2-7.641,5.873a42.113,42.113,0,0,1-.741,4.847s.019.019,0,.019a10.9,10.9,0,0,1,.077,3.82c-.04.112-.058.227-.1.341" transform="translate(54.099 36.209)" fill="#edb48a"/>
        <path id="Trazado_842" data-name="Trazado 842" d="M60.125,38.814s.543,8.124-.137,9.708-5.463,5.353-8.807,4.661c-1.049-.314-2.24-3.65-2.709-5.846s-.189-4.26-.822-4.98-.849-1.122-.824-1.4-.4-5.925.435-7.593,6.677-5.769,10.283-4.308,2.582,9.76,2.582,9.76" transform="translate(50.57 31.1)" fill="#ffc79e"/>
        <path id="Trazado_843" data-name="Trazado 843" d="M59.816,44.805A4.872,4.872,0,0,1,58.5,43.421a4.174,4.174,0,0,0-2.228-1.307,7.063,7.063,0,0,1-1.339-2.4c-.192-1.031-.477-3.239-.477-3.239s-1.32-.752-2.078-.408a11.215,11.215,0,0,1-2.607,1.162,5.572,5.572,0,0,1-2.592-.2s.175.489-.033.693-1.543-1.688-.079-4.249,4.947-5.228,7.451-5.7a6.809,6.809,0,0,1,4.736.421,3.592,3.592,0,0,1,1.068.793s3.2.364,4.73,2.084.756,9.55.281,10.966S63.2,45.243,63.419,46.8c-1.293.231.531-6.675-2.161-5.511-1.58.681-1.443,3.512-1.443,3.512" transform="translate(50.19 29.828)" fill="#754554"/>
        <path id="Trazado_844" data-name="Trazado 844" d="M53.08,35.331s1.216-2.124,2.886-1.141c1.514.893-.077,4.859-1.018,5.3s-1.484.16-1.609-.312a15.288,15.288,0,0,0-.258-3.845" transform="translate(57.429 36.71)" fill="#ffc79e"/>
        <path id="Trazado_845" data-name="Trazado 845" d="M62.976,43.505s-3.458-.768-4.93,4.693c-1.5,5.582-1.478,14.465-1.478,14.465s4.545-.368,6.017-.325,3.373.15,3.373.15,1.293-11.655.979-14.193-.951-4.824-3.96-4.791" transform="translate(61.203 47.03)" fill="#452775"/>
        <path id="Trazado_846" data-name="Trazado 846" d="M49.781,49.54a1.5,1.5,0,0,0-.312-.774c-.013-.015-.029-.037-.042-.05a.438.438,0,0,0,.137-.135.707.707,0,0,0,.075-.331.885.885,0,0,0-.675-.906l-.82-.217v1.318c.181.042.252-.1.441-.16l0-.533.325.085a.366.366,0,0,1,.289.369c0,.144-.025.262-.164.269a.966.966,0,0,0-.3.046,1.881,1.881,0,0,0-.366.189c-.16.085-.437-.054-.6-.248l-.01,0s0,.008,0,.017a.891.891,0,0,0,.416.606,1.245,1.245,0,0,0-.752.027.748.748,0,0,0-.429.51c0,.008.008.021.015.017a.715.715,0,0,1,.485-.1,1.152,1.152,0,0,1,.593.287,6.513,6.513,0,0,0,.683.6.592.592,0,0,0,.831-.108,1.073,1.073,0,0,0,.181-.774M49.2,49.9a.261.261,0,0,1-.235.048,1.43,1.43,0,0,1-.4-.323c-.092-.085-.277-.233-.3-.244l0-.019c.073-.033.137-.071.179-.092l.227-.119a.66.66,0,0,1,.239-.083.357.357,0,0,1,.275.131.606.606,0,0,1,.146.348.409.409,0,0,1-.129.352" transform="translate(50.843 50.988)" fill="#fff"/>
        <path id="Trazado_847" data-name="Trazado 847" d="M50.083,49.251c0,.593-.352.931-.829.806a1.247,1.247,0,0,1-.824-1.243c0-.6.346-.945.824-.82a1.272,1.272,0,0,1,.829,1.257m-1.2-.316a.61.61,0,0,0,.366.62c.212.056.366-.125.366-.427a.629.629,0,0,0-.366-.633c-.214-.056-.366.133-.366.439" transform="translate(52.398 51.898)" fill="#fff"/>
        <path id="Trazado_848" data-name="Trazado 848" d="M50.979,49.487c0,.593-.354.931-.831.806a1.247,1.247,0,0,1-.824-1.243c0-.6.346-.945.824-.82a1.273,1.273,0,0,1,.831,1.257m-1.2-.316a.613.613,0,0,0,.366.62c.212.056.369-.125.369-.427a.63.63,0,0,0-.369-.633c-.212-.056-.366.133-.366.439" transform="translate(53.365 52.154)" fill="#fff"/>
        <path id="Trazado_849" data-name="Trazado 849" d="M51.444,48.8l-.171.362A.729.729,0,0,0,50.9,48.9c-.133-.035-.2,0-.2.1s.058.156.281.281a.816.816,0,0,1,.493.718c0,.4-.26.589-.685.477a1.153,1.153,0,0,1-.6-.4l.173-.366a.83.83,0,0,0,.431.314c.139.037.225,0,.225-.11s-.056-.175-.269-.294c-.344-.2-.5-.4-.5-.7,0-.4.244-.585.66-.477a1.033,1.033,0,0,1,.545.36" transform="translate(54.294 52.38)" fill="#fff"/>
        <path id="Trazado_850" data-name="Trazado 850" d="M52.276,49.211a.439.439,0,0,1,.518-.2c.364.1.564.493.564,1.031V51.18l-.46-.123V49.946c0-.219-.083-.393-.237-.433-.137-.037-.227.05-.291.156v1.249l-.456-.121v-1.11c0-.221-.083-.4-.239-.435-.135-.037-.227.054-.291.158v1.247l-.456-.119V48.553l.41.108.021.225a.383.383,0,0,1,.448-.139.712.712,0,0,1,.471.464" transform="translate(55.1 52.531)" fill="#fff"/>
        <path id="Trazado_851" data-name="Trazado 851" d="M53.362,49.352l.023-.217.41.108v1.984l-.41-.106-.023-.227a.392.392,0,0,1-.46.137,1.184,1.184,0,0,1-.7-1.214c0-.6.281-.96.7-.849a.72.72,0,0,1,.46.383m-.7.587a.6.6,0,0,0,.354.622.268.268,0,0,0,.323-.162v-.564a.523.523,0,0,0-.323-.335c-.208-.054-.354.11-.354.439" transform="translate(56.479 52.96)" fill="#fff"/>
        <path id="Trazado_852" data-name="Trazado 852" d="M54.727,50.551c0,.593-.281.954-.7.843a.717.717,0,0,1-.437-.333v1.078l-.456-.119V49.135l.41.108.021.229a.4.4,0,0,1,.462-.142,1.193,1.193,0,0,1,.7,1.22m-1.137-.583v.56a.517.517,0,0,0,.325.335c.208.056.354-.11.354-.435a.593.593,0,0,0-.354-.625.271.271,0,0,0-.325.164" transform="translate(57.488 53.161)" fill="#fff"/>
        <path id="Trazado_853" data-name="Trazado 853" d="M46.371,37.988a6.671,6.671,0,0,1,4.77-.493,10.4,10.4,0,0,1,5.513,3.077,4.427,4.427,0,0,1,.36.4c1.008.189,7.126-1.33,9.046-2.983.381-.949.04-4.466-.266-5.588-1.368-4.58-6.823-5.663-11.251-4.98-.341.058-.683.133-1.026.21-3.914.968-6.727,3.914-7.031,5.986a22.22,22.22,0,0,0-.115,4.372" transform="translate(50.108 29.465)" fill="#3a1b5a"/>
        <g id="Grupo_332" data-name="Grupo 332" transform="translate(103.626 56.699)" opacity="0.25" style="mix-blend-mode: multiply;isolation: isolate">
          <g id="Grupo_331" data-name="Grupo 331">
            <g id="Grupo_330" data-name="Grupo 330" clip-path="url(#clip-path-12)">
              <path id="Trazado_854" data-name="Trazado 854" d="M52.909,40.573a4.307,4.307,0,0,1,.362.4c1.006.189,7.126-1.33,9.046-2.983.379-.951.037-4.468-.266-5.588-1.368-4.58-6.823-5.663-11.251-4.98-.344.058-.685.133-1.026.208.589.021,5.348-1.118,6.356,2.557C57.419,34.9,55.8,39,52.909,40.573" transform="translate(-49.774 -27.233)"/>
            </g>
          </g>
        </g>
        <path id="Trazado_855" data-name="Trazado 855" d="M53.38,35.175s.829-1.32,1.826-.585c.681.5,0,2.6-.464,3.294-.383.579-1.17.579-1.255.35a7.534,7.534,0,0,0-.106-3.058" transform="translate(57.754 37.183)" fill="#edb48a"/>
        <path id="Trazado_856" data-name="Trazado 856" d="M49.622,33.031s-3.941,2.484-6.071,4.253c-.406.335-.285.745.214.579,3.394-1.137,5.754,2.99,9.879,2.117,1.378-.294,6.616-3.956,6.616-3.956S55,29.079,49.622,33.031" transform="translate(46.855 34.422)" fill="#452775"/>
        <path id="Trazado_857" data-name="Trazado 857" d="M51.99,32.7a2.2,2.2,0,0,0-.36-1.164c-.017-.023-.037-.058-.054-.081a.651.651,0,0,0,.214-.179.979.979,0,0,0,.15-.471,1.291,1.291,0,0,0-.87-1.4L49.9,29l-.158,1.917c.26.083.379-.119.662-.181l.06-.777.462.164a.536.536,0,0,1,.377.57c-.019.21-.069.381-.273.371a1.5,1.5,0,0,0-.439.031,2.915,2.915,0,0,0-.554.231c-.244.1-.631-.129-.845-.433-.008-.008-.012-.008-.015-.006l0,.023a1.31,1.31,0,0,0,.533.933,1.792,1.792,0,0,0-1.1-.05,1.076,1.076,0,0,0-.683.687c-.006.015.008.031.017.027a1.065,1.065,0,0,1,.718-.087,1.7,1.7,0,0,1,.829.489,9.373,9.373,0,0,0,.92.958.86.86,0,0,0,1.22-.056,1.564,1.564,0,0,0,.358-1.1m-.891.45a.375.375,0,0,1-.348.04,2.011,2.011,0,0,1-.548-.516c-.123-.135-.375-.373-.4-.389s-.012-.025,0-.029c.112-.04.21-.085.273-.112.033-.012.239-.1.346-.144a.9.9,0,0,1,.356-.092.519.519,0,0,1,.385.223.863.863,0,0,1,.169.525.59.59,0,0,1-.229.5" transform="translate(51.853 31.372)" fill="#fff"/>
      </g>
    </g>
  </g>
</svg>
